<svg width="56" height="56" viewBox="0 0 56 56" fill="none" xmlns="http://www.w3.org/2000/svg">
<g clip-path="url(#clip0_9_53)">
<path d="M46.1597 29.0036H44.4097V2.73131C44.4097 2.19013 43.9617 1.75 43.4105 1.75H11.9057C11.3549 1.75 10.9069 2.19013 10.9069 2.73131V23.5931H9.15686V2.73131C9.15686 1.22544 10.3897 0 11.9057 0H43.4105C44.9264 0 46.1597 1.22544 46.1597 2.73131V29.0036ZM22.7535 48.0384H30.8744V49.7884H22.7535V48.0384ZM17.0647 43.9963H28.0634V45.7463H17.0647V43.9963Z" fill="#EF233C"/>
<path d="M13.2799 5.4635H42.0363V7.2135H13.2799V5.4635ZM52.3364 56H50.5864V52.7069L50.9412 52.4444C52.2414 51.4819 52.9869 50.0141 52.9869 48.4177V38.1609L52.8776 35.938C52.8767 35.1654 52.2729 34.5721 51.5314 34.5721C50.19 34.5721 50.1852 35.1103 50.1852 35.343V35.3456H48.4352V34.797C48.4352 34.0673 47.8319 33.4736 47.0908 33.4736C46.3492 33.4736 45.7454 34.0673 45.7454 34.797H43.9954V33.6971C43.9954 32.9678 43.3913 32.375 42.6488 32.375C41.9077 32.375 41.3044 32.9678 41.3044 33.6971V34.9344H39.5544C39.5544 31.9576 39.5342 22.2731 39.5342 22.2727C39.5342 21.4996 38.8955 20.8718 38.1106 20.8718C37.3271 20.8718 36.6896 21.4996 36.6896 22.2709L36.6774 44.4872L34.9282 44.5235L34.8828 43.4407L34.8819 38.8618C34.8819 37.4929 33.7522 36.379 32.3636 36.379H32.1081V39.6358L32.2136 40.3231L32.1081 40.3563V44.9719L38.241 52.1863C38.7503 52.4965 39.8913 53.1401 40.5615 53.3015L41.2313 53.4629V56H39.4813V54.7851C38.4615 54.3848 37.3476 53.6939 37.1984 53.6003L37.0843 53.5286L30.3581 45.6159L30.3559 39.7482L30.3319 39.0819L30.3581 39.0736V36.2762L30.3065 36.2692L30.3581 35.2511V34.6907L30.394 34.6885L30.3975 34.629L32.3628 34.6286C33.3261 34.6286 34.2164 34.9471 34.9318 35.483L34.9392 22.2696C34.9392 20.5336 36.3615 19.1209 38.1102 19.1209C39.8602 19.1209 41.2838 20.5336 41.2838 22.2701C41.2838 22.2701 41.2934 27.0541 41.2996 30.9313C41.7202 30.7283 42.1813 30.6232 42.6484 30.6237C43.2059 30.6233 43.7532 30.773 44.2329 31.0573C44.7125 31.3415 45.1067 31.7497 45.374 32.2389C45.8825 31.9009 46.4797 31.721 47.0903 31.7218C47.6184 31.7215 48.1378 31.856 48.5993 32.1128C49.0607 32.3695 49.449 32.7399 49.7271 33.1888C50.2101 32.9486 50.8178 32.8208 51.5309 32.8208C53.2376 32.8208 54.6263 34.1994 54.6263 35.8938L54.7356 38.1168L54.7365 48.4164C54.7365 50.4236 53.8672 52.2773 52.3364 53.5693V56ZM13.8495 49.112L12.2329 48.4413C12.7969 47.0824 13.0948 45.5385 13.0948 43.9775C13.0948 40.5952 11.7093 37.4828 9.47888 35.8553L8.96044 35.4773L10.5398 30.7847L12.0155 30.8302C12.7903 30.8595 13.5109 30.5559 14.0669 30.0226C14.3394 29.7639 14.5574 29.4534 14.7082 29.1093C14.8589 28.7652 14.9395 28.3945 14.945 28.0188L14.9538 27.4943L8.8445 27.4033L5.78769 34.2497V48.6036H4.03769V33.8774L7.73019 25.6366L16.66 25.7701L16.7059 26.5829C16.7134 26.6801 16.7164 26.747 16.7147 26.817L16.6946 28.0477C16.6861 28.6548 16.5563 29.2541 16.313 29.8103C16.0696 30.3666 15.7176 30.8686 15.2775 31.2869C14.3912 32.1387 13.203 32.6039 11.9739 32.5802L11.7836 32.5741L11.0193 34.8447C13.3928 36.8703 14.8439 40.3029 14.8439 43.9775C14.8448 45.766 14.5009 47.5418 13.8495 49.112Z" fill="#EF233C"/>
<path d="M20.5901 56H18.8401V49.8527H3.01349V56H1.26349V48.1027H20.5901V56ZM25.9661 18.4292H15.1139V9.92249H25.9661V18.4292ZM16.8639 16.6792H24.2161V11.6725H16.8639V16.6792ZM14.7092 21.1842H32.0132V22.9342H14.7092V21.1842ZM18.6913 25.6882H32.0132V27.4382H18.6913V25.6882Z" fill="#EF233C"/>
<path d="M18.6913 30.1927H32.0132V31.9427H18.6913V30.1927Z" fill="#EF233C"/>
<path d="M14.7092 34.6977H27.6041V36.4477H14.7092V34.6977Z" fill="#EF233C"/>
<path d="M38.9883 16.3437H37.2383V14.5937H38.9883V16.3437ZM38.9883 12.8437H37.2383V11.0937H38.9883V12.8437ZM37.2383 9.3437V9.30563H38.9883L37.2383 9.3437Z" fill="#EF233C"/>
</g>
<defs>
<clipPath id="clip0_9_53">
<rect width="56" height="56" fill="white"/>
</clipPath>
</defs>
</svg>
